<svg xmlns="http://www.w3.org/2000/svg" viewBox="0 0 12 12" fill="rgba(255,140,0,1)" aria-hidden="true" id="Battery-100--Streamline-Heroicons" height="60" width="60"><desc>Battery 100 Streamline Icon: https://streamlinehq.com</desc><path fill-rule="evenodd" d="M1.875 3.375a1.5 1.5 0 0 0 -1.5 1.5v3a1.5 1.5 0 0 0 1.5 1.5h7.5a1.5 1.5 0 0 0 1.5 -1.5v-0.0185c0.428 -0.087 0.75 -0.465 0.75 -0.919v-1.125c0 -0.4535 -0.322 -0.832 -0.75 -0.9185V4.875a1.5 1.5 0 0 0 -1.5 -1.5h-7.5Zm7.5 0.75a0.75 0.75 0 0 1 0.75 0.75v3a0.75 0.75 0 0 1 -0.75 0.75h-7.5a0.75 0.75 0 0 1 -0.75 -0.75v-3a0.75 0.75 0 0 1 0.75 -0.75h7.5ZM2.25 4.875a0.375 0.375 0 0 0 -0.375 0.375V7.5c0 0.207 0.168 0.375 0.375 0.375H9a0.375 0.375 0 0 0 0.375 -0.375v-2.25a0.375 0.375 0 0 0 -0.375 -0.375H2.25Z" clip-rule="evenodd" stroke-width="0.5"></path></svg>